<svg xmlns="http://www.w3.org/2000/svg" id="Layer_1" data-name="Layer 1" viewBox="0 0 736.09 865.01"><defs><style>.cls-1{fill:#333;fill-opacity:0;}.cls-2{fill:#7d5f92;}.cls-3{fill:#00ada8;}.cls-4{fill:#d72f5a;}</style></defs><rect class="cls-1" x="0.03" width="736.06" height="863.74"/><path class="cls-2" d="M98.75,865A98.71,98.71,0,0,1,0,766.31c0-.84,0-1.67,0-2.5V101.17a98.72,98.72,0,0,1,197.44,0V763.81A98.72,98.72,0,0,1,101.25,865Z"/><path class="cls-3" d="M636.76,530A98.72,98.72,0,0,1,538,433.1,233.22,233.22,0,0,0,326.42,199.88H101.83a98.72,98.72,0,0,1,0-197.43S324.57,1.21,340.61,1.21c224.2,19,396.28,206.89,395.48,431.89A98.71,98.71,0,0,1,636.76,530Z"/><path class="cls-4" d="M101.83,865a98.72,98.72,0,1,1-.08-197.43H324.57A232.6,232.6,0,0,0,538,433.1a99.33,99.33,0,0,1,198.05,0C736.74,659.42,562.57,847.86,336.9,865Z"/></svg>